<?xml version="1.0" encoding="UTF-8" standalone="no"?>
<svg
   xmlns:dc="http://purl.org/dc/elements/1.1/"
   xmlns:cc="http://creativecommons.org/ns#"
   xmlns:rdf="http://www.w3.org/1999/02/22-rdf-syntax-ns#"
   xmlns:svg="http://www.w3.org/2000/svg"
   xmlns="http://www.w3.org/2000/svg"
   xmlns:sodipodi="http://sodipodi.sourceforge.net/DTD/sodipodi-0.dtd"
   xmlns:inkscape="http://www.inkscape.org/namespaces/inkscape"
   width="48.5"
   height="64.667"
   viewBox="0 0 48.5 64.667"
   version="1.1"
   id="svg3283"
   sodipodi:docname="location.svg"
   inkscape:version="1.0.2 (e86c870879, 2021-01-15)">
  <metadata
     id="metadata3289">
    <rdf:RDF>
      <cc:Work
         rdf:about="">
        <dc:format>image/svg+xml</dc:format>
        <dc:type
           rdf:resource="http://purl.org/dc/dcmitype/StillImage" />
      </cc:Work>
    </rdf:RDF>
  </metadata>
  <defs
     id="defs3287" />
  <sodipodi:namedview
     pagecolor="#ffffff"
     bordercolor="#666666"
     borderopacity="1"
     objecttolerance="10"
     gridtolerance="10"
     guidetolerance="10"
     inkscape:pageopacity="0"
     inkscape:pageshadow="2"
     inkscape:window-width="950"
     inkscape:window-height="1032"
     id="namedview3285"
     showgrid="false"
     inkscape:zoom="13.747352"
     inkscape:cx="10.247303"
     inkscape:cy="32.3335"
     inkscape:window-x="962"
     inkscape:window-y="40"
     inkscape:window-maximized="0"
     inkscape:current-layer="svg3283" />
  <g
     id="Group_1250"
     data-name="Group 1250"
     transform="translate(-64)"
     style="fill:#6ab04c;fill-opacity:1">
    <path
       id="Path_1466"
       data-name="Path 1466"
       d="M88.25,0A24.277,24.277,0,0,0,64,24.25C64,42.14,86.374,63.4,87.326,64.3a1.349,1.349,0,0,0,1.847,0C90.126,63.4,112.5,42.14,112.5,24.25A24.277,24.277,0,0,0,88.25,0Zm0,61.434C84.016,57.207,66.694,39.006,66.694,24.25a21.556,21.556,0,1,1,43.111,0C109.806,39.006,92.484,57.207,88.25,61.434Z"
       fill="#5d78ff"
       style="fill:#6ab04c;fill-opacity:1" />
    <path
       id="Path_1467"
       data-name="Path 1467"
       d="M162.805,85.333a13.472,13.472,0,1,0,13.472,13.472A13.488,13.488,0,0,0,162.805,85.333Zm0,24.25a10.778,10.778,0,1,1,10.778-10.778A10.789,10.789,0,0,1,162.805,109.583Z"
       transform="translate(-74.555 -74.555)"
       fill="#5d78ff"
       style="fill:#6ab04c;fill-opacity:1" />
  </g>
</svg>
