<?xml version="1.0" encoding="UTF-8" standalone="no"?>
<svg
   xmlns:dc="http://purl.org/dc/elements/1.1/"
   xmlns:cc="http://creativecommons.org/ns#"
   xmlns:rdf="http://www.w3.org/1999/02/22-rdf-syntax-ns#"
   xmlns:svg="http://www.w3.org/2000/svg"
   xmlns="http://www.w3.org/2000/svg"
   xmlns:sodipodi="http://sodipodi.sourceforge.net/DTD/sodipodi-0.dtd"
   xmlns:inkscape="http://www.inkscape.org/namespaces/inkscape"
   version="1.1"
   id="Layer_1"
   x="0px"
   y="0px"
   viewBox="0 0 64.000002 64.000002"
   xml:space="preserve"
   sodipodi:docname="15972340571535698998.svg"
   inkscape:version="1.0.2 (e86c870879, 2021-01-15)"
   width="64"
   height="64"><metadata
   id="metadata3911"><rdf:RDF><cc:Work
       rdf:about=""><dc:format>image/svg+xml</dc:format><dc:type
         rdf:resource="http://purl.org/dc/dcmitype/StillImage" /><dc:title></dc:title></cc:Work></rdf:RDF></metadata><defs
   id="defs3909" /><sodipodi:namedview
   pagecolor="#ffffff"
   bordercolor="#666666"
   borderopacity="1"
   objecttolerance="10"
   gridtolerance="10"
   guidetolerance="10"
   inkscape:pageopacity="0"
   inkscape:pageshadow="2"
   inkscape:window-width="1920"
   inkscape:window-height="1044"
   id="namedview3907"
   showgrid="false"
   inkscape:zoom="1.9456179"
   inkscape:cx="43.463701"
   inkscape:cy="50.7043"
   inkscape:window-x="0"
   inkscape:window-y="36"
   inkscape:window-maximized="0"
   inkscape:current-layer="Layer_1"
   inkscape:document-rotation="0" />
<path
   d="m 60.927792,49.603553 c 0.03173,-0.09791 0.05327,-0.201207 0.05327,-0.309912 v -35.87096 c 0,-0.109381 -0.02164,-0.213361 -0.05396,-0.311939 -0.0042,-0.0135 -0.008,-0.02701 -0.01284,-0.04051 -0.04326,-0.115458 -0.106675,-0.219437 -0.186348,-0.310589 -0.0052,-0.0061 -0.0062,-0.0135 -0.0114,-0.01959 -0.0029,-0.0033 -0.008,-0.0048 -0.0108,-0.0081 -0.08508,-0.09048 -0.185679,-0.163396 -0.298429,-0.218087 -0.0087,-0.004 -0.01547,-0.0095 -0.02424,-0.0135 -0.106682,-0.04793 -0.222814,-0.07494 -0.345023,-0.08305 -0.01212,-6.75e-4 -0.0236,-0.0033 -0.0358,-0.0033 -0.0114,-6.75e-4 -0.02164,-0.0033 -0.03304,-0.0033 H 3.789619 c -0.011484,0 -0.022276,0.0026 -0.03376,0.0033 -0.010799,6.76e-4 -0.021612,0.0026 -0.032404,0.0033 -0.1235592,0.0081 -0.2417189,0.03578 -0.3497485,0.0844 -0.0067,0.0026 -0.012148,0.0074 -0.0189,0.01013 -0.1147832,0.05468 -0.2167368,0.128962 -0.3024864,0.220788 -0.00332,0.0033 -0.00738,0.004 -0.0108,0.0074 -0.00548,0.0055 -0.00611,0.01283 -0.011484,0.0189 -0.079671,0.09116 -0.1438161,0.195811 -0.1870283,0.311269 -0.00547,0.0135 -0.00809,0.02701 -0.012831,0.04118 -0.032407,0.09859 -0.054017,0.202566 -0.054017,0.311947 v 35.871661 c 0,0.110734 0.022276,0.21606 0.055372,0.315991 0.00476,0.01356 0.00738,0.0264 0.012148,0.03986 0.043888,0.11613 0.1087044,0.220783 0.1890532,0.311933 0.00476,0.0052 0.00611,0.01212 0.0108,0.0176 0.00404,0.0042 0.00946,0.008 0.014172,0.01212 0.033089,0.03448 0.069541,0.06487 0.1073558,0.09454 0.01688,0.01284 0.03174,0.02828 0.049284,0.04046 0.044557,0.03113 0.092502,0.05612 0.1417903,0.07896 0.012148,0.0052 0.02296,0.01422 0.035116,0.0189 0.1222096,0.05206 0.2565732,0.08175 0.3976883,0.08175 H 59.967666 c 0.141115,0 0.275478,-0.029 0.397687,-0.08175 0.01893,-0.0086 0.03639,-0.0202 0.05468,-0.02972 0.04184,-0.02092 0.08371,-0.04256 0.122208,-0.06895 0.0202,-0.01422 0.03852,-0.03233 0.058,-0.048 0.03448,-0.02766 0.06824,-0.0554 0.0979,-0.08707 0.0052,-0.0052 0.0114,-0.0094 0.01688,-0.01487 0.0052,-0.0062 0.0072,-0.01423 0.01212,-0.0202 0.07896,-0.09048 0.142462,-0.194456 0.18568,-0.309239 0.0072,-0.01483 0.01018,-0.029 0.01483,-0.04393 z M 4.8024081,15.719686 21.849001,31.290305 4.8024081,46.985157 Z M 39.740923,30.527334 c -0.07016,0.04588 -0.144488,0.0844 -0.203233,0.14922 -0.02236,0.02424 -0.02972,0.05612 -0.04922,0.08175 L 31.878985,37.708686 6.399913,14.43547 h 50.958138 z m -16.390294,2.134288 7.845054,7.165815 c 0.193782,0.176903 0.438207,0.26535 0.683302,0.26535 0.245092,0 0.489513,-0.08845 0.682616,-0.26535 l 7.747836,-7.076691 17.043886,15.530777 H 6.3850589 Z m 18.46111,-1.282871 17.143819,-15.659065 v 31.281673 z"
   id="path3904"
   style="fill:#6ab04c;fill-opacity:1;stroke-width:0.6752" />
</svg>
