<?xml version="1.0" encoding="UTF-8" standalone="no"?>
<svg
   xmlns:osb="http://www.openswatchbook.org/uri/2009/osb"
   xmlns:dc="http://purl.org/dc/elements/1.1/"
   xmlns:cc="http://creativecommons.org/ns#"
   xmlns:rdf="http://www.w3.org/1999/02/22-rdf-syntax-ns#"
   xmlns:svg="http://www.w3.org/2000/svg"
   xmlns="http://www.w3.org/2000/svg"
   xmlns:sodipodi="http://sodipodi.sourceforge.net/DTD/sodipodi-0.dtd"
   xmlns:inkscape="http://www.inkscape.org/namespaces/inkscape"
   width="65.388"
   height="59.939"
   viewBox="0 0 65.388 59.939"
   version="1.1"
   id="svg2606"
   sodipodi:docname="phone.svg"
   inkscape:version="1.0.2 (e86c870879, 2021-01-15)">
  <metadata
     id="metadata2612">
    <rdf:RDF>
      <cc:Work
         rdf:about="">
        <dc:format>image/svg+xml</dc:format>
        <dc:type
           rdf:resource="http://purl.org/dc/dcmitype/StillImage" />
      </cc:Work>
    </rdf:RDF>
  </metadata>
  <defs
     id="defs2610">
    <linearGradient
       id="linearGradient3189"
       osb:paint="solid">
      <stop
         style="stop-color:#000000;stop-opacity:1;"
         offset="0"
         id="stop3187" />
    </linearGradient>
    <linearGradient
       id="linearGradient3183"
       osb:paint="solid">
      <stop
         style="stop-color:#000000;stop-opacity:1;"
         offset="0"
         id="stop3181" />
    </linearGradient>
    <linearGradient
       id="linearGradient3177"
       osb:paint="solid">
      <stop
         style="stop-color:#000000;stop-opacity:1;"
         offset="0"
         id="stop3175" />
    </linearGradient>
  </defs>
  <sodipodi:namedview
     pagecolor="#ffffff"
     bordercolor="#666666"
     borderopacity="1"
     objecttolerance="10"
     gridtolerance="10"
     guidetolerance="10"
     inkscape:pageopacity="0"
     inkscape:pageshadow="2"
     inkscape:window-width="1920"
     inkscape:window-height="1044"
     id="namedview2608"
     showgrid="false"
     inkscape:zoom="4.895145"
     inkscape:cx="16.860579"
     inkscape:cy="61.104961"
     inkscape:window-x="0"
     inkscape:window-y="36"
     inkscape:window-maximized="1"
     inkscape:current-layer="svg2606"
     inkscape:document-rotation="0" />
  <path
     d="M 6.556488,57.769019 10.440981,43.57807 C 8.0439703,39.424173 6.7844456,34.715347 6.7867483,29.886787 6.7936563,14.790915 19.078048,2.5065233 34.171618,2.5065233 c 7.324583,0.00229 14.200158,2.8552288 19.371807,8.0314827 5.169346,5.176254 8.015364,12.056434 8.013062,19.37411 -0.0069,15.098174 -12.2913,27.382567 -27.384869,27.382567 -4.582182,-0.0023 -9.097589,-1.151302 -13.097212,-3.334171 z m 15.190279,-8.766014 c 3.859164,2.291091 7.54333,3.663443 12.41564,3.665746 12.544587,0 22.763543,-10.209746 22.770451,-22.761241 0.0046,-12.576822 -10.165996,-22.7727522 -22.752029,-22.7773576 -12.553798,0 -22.765846,10.2097456 -22.770452,22.7589376 -0.0023,5.123294 1.498995,8.959432 4.020346,12.97287 l -2.3003,8.3999 z M 47.966518,36.421578 c -0.170393,-0.285524 -0.626308,-0.455917 -1.312484,-0.799005 -0.683874,-0.343087 -4.047978,-1.998659 -4.676589,-2.226617 -0.626308,-0.227959 -1.082224,-0.343088 -1.540442,0.343087 -0.455916,0.683874 -1.7684,2.226618 -2.16675,2.682535 -0.398351,0.455915 -0.799004,0.51348 -1.482877,0.170392 -0.683874,-0.343088 -2.889768,-1.063803 -5.503223,-3.396341 -2.0332,-1.814452 -3.407854,-4.054886 -3.806205,-4.741062 -0.398351,-0.683873 -0.04144,-1.054592 0.299339,-1.395377 0.308549,-0.306247 0.683872,-0.799004 1.026961,-1.199658 0.347693,-0.396047 0.460521,-0.68157 0.690781,-1.139788 0.227958,-0.455916 0.11513,-0.856569 -0.05757,-1.199657 -0.172695,-0.340785 -1.540442,-3.709495 -2.109185,-5.079544 -0.55723,-1.333208 -1.121369,-1.153605 -1.540442,-1.174328 l -1.312484,-0.02303 c -0.455917,0 -1.197355,0.170393 -1.823663,0.856569 -0.626308,0.686176 -2.394708,2.339446 -2.394708,5.708155 0,3.36871 2.452273,6.62229 2.793058,7.078205 0.343089,0.455916 4.823956,7.368333 11.688018,10.331784 1.632547,0.704597 2.90819,1.125974 3.900611,1.44143 1.639454,0.520389 3.131542,0.446705 4.310475,0.271707 1.314787,-0.195721 4.047978,-1.655571 4.619024,-3.253579 0.571046,-1.600309 0.571046,-2.970359 0.398351,-3.255881 z"
     id="path980"
     style="fill:#6ab04c;fill-opacity:1;stroke-width:2.3026" />
</svg>
