<?xml version="1.0" encoding="UTF-8" standalone="no"?>
<svg
   xmlns:dc="http://purl.org/dc/elements/1.1/"
   xmlns:cc="http://creativecommons.org/ns#"
   xmlns:rdf="http://www.w3.org/1999/02/22-rdf-syntax-ns#"
   xmlns:svg="http://www.w3.org/2000/svg"
   xmlns="http://www.w3.org/2000/svg"
   xmlns:sodipodi="http://sodipodi.sourceforge.net/DTD/sodipodi-0.dtd"
   xmlns:inkscape="http://www.inkscape.org/namespaces/inkscape"
   id="Group_1256"
   data-name="Group 1256"
   width="63.43"
   height="63.43"
   viewBox="0 0 63.43 63.43"
   version="1.1"
   sodipodi:docname="time.svg"
   inkscape:version="1.0.2 (e86c870879, 2021-01-15)">
  <metadata
     id="metadata1975">
    <rdf:RDF>
      <cc:Work
         rdf:about="">
        <dc:format>image/svg+xml</dc:format>
        <dc:type
           rdf:resource="http://purl.org/dc/dcmitype/StillImage" />
      </cc:Work>
    </rdf:RDF>
  </metadata>
  <defs
     id="defs1973" />
  <sodipodi:namedview
     pagecolor="#ffffff"
     bordercolor="#666666"
     borderopacity="1"
     objecttolerance="10"
     gridtolerance="10"
     guidetolerance="10"
     inkscape:pageopacity="0"
     inkscape:pageshadow="2"
     inkscape:window-width="950"
     inkscape:window-height="1032"
     id="namedview1971"
     showgrid="false"
     inkscape:zoom="4.6743899"
     inkscape:cx="31.724212"
     inkscape:cy="52.078101"
     inkscape:window-x="962"
     inkscape:window-y="40"
     inkscape:window-maximized="0"
     inkscape:current-layer="Group_1256" />
  <path
     id="Path_1490"
     data-name="Path 1490"
     d="M31.715,0A31.715,31.715,0,1,0,63.43,31.715,31.751,31.751,0,0,0,31.715,0Zm1.322,60.72v-3.9a1.322,1.322,0,0,0-2.643,0v3.9A29.062,29.062,0,0,1,2.71,33.037h3.9a1.322,1.322,0,1,0,0-2.643H2.71A29.062,29.062,0,0,1,30.394,2.71v3.9a1.322,1.322,0,1,0,2.643,0V2.71A29.062,29.062,0,0,1,60.72,30.394h-3.9a1.322,1.322,0,0,0,0,2.643h3.9A29.062,29.062,0,0,1,33.037,60.72Z"
     fill="#5d78ff"
     style="fill:#6ab04c;fill-opacity:1" />
  <path
     id="Path_1491"
     data-name="Path 1491"
     d="M239.822,107.136a2.535,2.535,0,0,0,.13-.644,2.571,2.571,0,0,0-.5-1.463l8.307-17.8a1.321,1.321,0,1,0-2.4-1.117l-8.3,17.788a2.623,2.623,0,0,0,.248,5.235,2.536,2.536,0,0,0,.644-.13l10.315,10.315a1.321,1.321,0,0,0,1.869-1.869Z"
     transform="translate(-205.595 -74.777)"
     fill="#5d78ff"
     style="fill:#6ab04c;fill-opacity:1" />
</svg>
